<svg style="position: absolute; width: 0; height: 0;" width="0" height="0" version="1.1" xmlns="http://www.w3.org/2000/svg" xmlns:xlink="http://www.w3.org/1999/xlink">
<defs>
<symbol id="svgicon-microsoft-color-logo" viewBox="0 0 4759 1024">
<title>microsoft-color-logo</title>
<path fill="#737373" class="path1 fill-color2" d="M4550.776 462.306h-152.877v352.075h-103.906v-352.075h-73.005v-84.028h73.005v-60.657c0-45.779 14.878-83.305 44.755-112.64 29.816-29.214 68.066-43.851 114.748-43.851 12.408 0 23.492 0.602 33.129 1.807 9.517 1.385 18.071 3.253 25.299 5.843v88.546c8.117 3.599-3.882-2.876-16.953-6.907-9.040-2.883-18.571-4.429-28.463-4.429-0.53 0-1.059 0.004-1.587 0.013-21.424-0.001-37.989 6.625-49.554 20.118-11.565 13.432-17.348 33.31-17.348 59.633v52.525h152.877v-97.943l103.123-31.322v129.265h103.906v84.028h-103.906v204.017c0 26.865 4.819 45.779 14.577 56.862 9.758 11.023 25.118 16.565 46.080 16.565 5.843 0 13.011-1.385 21.323-4.216 8.433-2.831 15.661-6.204 21.865-10.24v84.932c-6.505 3.614-17.348 7.048-32.527 10.24-15.059 3.012-29.997 4.578-44.695 4.578-43.249 0-75.716-11.445-97.34-34.575-21.685-23.070-32.527-57.826-32.527-104.207v-223.895zM3869.154 599.341c0 45.478 10.36 80.294 30.961 104.328 20.661 24.094 50.236 36.141 88.666 36.141 37.346 0 65.777-12.047 85.233-36.141 19.516-24.094 29.274-59.633 29.274-106.918 0-46.984-9.999-82.342-30.238-106.255s-48.61-35.84-85.052-35.84c-37.587 0-66.861 12.529-87.582 37.527-20.781 25.118-31.202 60.838-31.202 107.219zM3762.236 602.714c0-72.102 20.299-129.205 61.018-171.369 40.779-42.165 97.34-63.247 169.683-63.247 68.186 0 121.434 20.36 159.744 60.958s57.464 95.413 57.464 164.442c0 70.656-20.36 126.916-61.079 168.779s-96.136 62.765-166.249 62.765c-67.644 0-121.314-19.878-161.009-59.633-39.755-39.755-59.633-93.967-59.633-162.635zM3530.993 492.845c0 14.697 4.638 26.202 13.975 34.575 9.336 8.312 29.937 18.854 61.922 31.563 40.96 16.444 69.873 34.936 86.317 55.416 16.565 20.48 24.817 45.297 24.817 74.451 0 40.96-15.782 73.909-47.285 98.786-31.563 24.937-74.089 37.346-127.88 37.346-18.191 0-38.189-2.168-60.115-6.626 2.356 2.496-28.874-4.989-57.507-17.349l1.729-100.35c18.673 13.011 38.731 23.311 60.235 30.961s40.96 11.445 58.549 11.445c23.191 0 40.358-3.253 51.32-9.758 11.023-6.505 16.565-17.468 16.565-32.648 0.001-0.091 0.001-0.199 0.001-0.306 0-14.355-6.669-27.153-17.077-35.464-11.536-9.828-33.22-21.153-65.145-33.802-37.948-15.842-64.813-33.732-80.715-53.489-15.782-19.757-23.733-44.936-23.733-75.475 0-39.334 15.661-71.68 46.863-96.979 31.322-25.299 71.8-37.948 121.555-37.948 15.24 0 32.407 1.687 51.32 5.12 18.974 3.373 34.816 7.831 47.586 13.131v97.581c13.065 6.206-14.868-11.744-46.053-22.836-19.603-6.981-37.674-10.234-55.383-10.234-19.516 0-34.756 3.855-45.598 11.445-10.842 7.71-16.264 18.071-16.264 31.443zM3037.304 599.341c0 45.478 10.36 80.294 31.021 104.328 20.48 24.094 50.116 36.141 88.546 36.141 37.346 0 65.777-12.047 85.293-36.141s29.274-59.633 29.274-106.918c0-46.984-10.12-82.342-30.359-106.255s-48.55-35.84-85.052-35.84c-37.587 0-66.861 12.529-87.582 37.527-20.781 25.118-31.202 60.838-31.202 107.219zM2930.447 602.714c0-72.102 20.36-129.205 61.079-171.369s97.28-63.247 169.683-63.247c68.186 0 121.434 20.36 159.744 60.958s57.464 95.413 57.464 164.442c0 70.656-20.36 126.916-61.079 168.779s-96.136 62.765-166.249 62.765c-67.644 0-121.254-19.878-161.009-59.633s-59.633-93.967-59.633-162.635zM2886.234 371.11c8.252 0 15.661 0.602 22.106 1.807 6.505 1.084 12.047 2.409 16.504 4.216v103.906c3.095 0.833-9.168-6.722-22.855-11.089-10.997-3.79-23.526-5.476-38.224-5.476-25.178 0-46.381 10.601-63.849 31.804-17.348 21.203-26.082 53.911-26.082 98.003v220.16h-102.641v-436.164h102.641v68.668h1.687c9.336-23.672 23.492-42.285 42.466-55.718 18.914-13.372 41.683-20.119 68.247-20.119zM2492.597 739.75c15.36 0 32.166-3.494 50.598-10.541-8.067 6.104 24.196-7.955 51.382-28.401l-0.544 95.804c-16.384 9.336-34.936 16.444-55.778 21.203-19.804 4.602-42.545 7.239-65.902 7.239-0.909 0-1.817-0.004-2.725-0.012-64.012 0.001-116.115-20.298-156.352-60.837-40.117-40.599-60.235-92.401-60.235-155.407 0-70.234 20.48-128 61.56-173.357 40.96-45.417 99.087-68.066 174.321-68.066 19.275 0 38.671 2.409 58.308 7.409 19.697 5 35.298 10.722 46.863 17.227v98.304c12.009 6.193-15.68-13.843-47.137-26.484-16.309-6.479-33.745-9.991-51.999-10.018-40.55 0-73.197 13.131-98.074 39.454-24.937 26.263-37.346 61.741-37.346 106.436 0 44.092 11.927 78.487 35.84 103.002 23.913 24.696 56.38 36.984 97.34 36.984zM2181.301 814.441h-102.641v-436.164h102.641v436.104zM2068.058 252.446c0-17.047 6.144-31.322 18.432-42.767 12.348-11.445 26.925-17.107 43.972-17.107 18.071 0 33.009 5.843 44.936 17.589 10.959 10.444 17.774 25.152 17.774 41.452 0 0.251-0.002 0.501-0.005 0.751 0 16.707-6.144 30.682-18.251 42.006-11.225 10.534-26.372 17.005-43.031 17.005-0.543 0-1.084-0.007-1.623-0.021-17.388 0.002-32.206-5.721-44.253-17.165-11.927-11.445-17.95-25.419-17.95-41.803zM1979.693 206.065v608.376h-105.592v-476.883h-1.687l-188.838 476.823h-69.993l-193.476-476.823h-1.205v476.823h-97.581v-608.376h151.432l174.682 450.982h2.59l184.561-450.921h145.047z"></path>
<path fill="#f25022" class="path2 fill-color5" d="M485.195 485.195h-481.882v-481.882h481.882v481.882z"></path>
<path fill="#7fba00" class="path3 fill-color1" d="M1017.133 485.195h-481.882v-481.882h481.882v481.882z"></path>
<path fill="#00a4ef" class="path4 fill-color3" d="M485.195 1017.133h-481.882v-481.882h481.882v481.882z"></path>
<path fill="#ffb900" class="path5 fill-color4" d="M1017.133 1017.133h-481.882v-481.882h481.882v481.882z"></path>
</symbol>
</defs>
</svg>
